<?xml version="1.0" encoding="UTF-8" standalone="no"?>
<!-- Created with Inkscape (http://www.inkscape.org/) -->

<svg xmlns:dc="http://purl.org/dc/elements/1.1/" xmlns:cc="http://creativecommons.org/ns#" xmlns:rdf="http://www.w3.org/1999/02/22-rdf-syntax-ns#"
    xmlns="http://www.w3.org/2000/svg" xmlns:sodipodi="http://sodipodi.sourceforge.net/DTD/sodipodi-0.dtd"
    xmlns:inkscape="http://www.inkscape.org/namespaces/inkscape" width="108pt" height="108pt"
    viewBox="0 0 38.100001 38.1" version="1.1" id="svg8" inkscape:version="0.92.4 5da689c313, 2019-01-14"
    sodipodi:docname="transistor-app-icon-current.svg" inkscape:export-filename="/Users/solaris/Desktop/transistor/assets/transistor-app-icon-current-background.png"
    inkscape:export-xdpi="600" inkscape:export-ydpi="600">
  <defs
     id="defs2">
    <filter
       style="color-interpolation-filters:sRGB"
       inkscape:label="Drop Shadow"
       id="filter5622">
      <feFlood
         flood-opacity="0.498039"
         flood-color="rgb(0,0,0)"
         result="flood"
         id="feFlood5612" />
      <feComposite
         in="flood"
         in2="SourceGraphic"
         operator="in"
         result="composite1"
         id="feComposite5614" />
      <feGaussianBlur
         in="composite1"
         stdDeviation="0.2"
         result="blur"
         id="feGaussianBlur5616" />
      <feOffset
         dx="2"
         dy="0.7"
         result="offset"
         id="feOffset5618" />
      <feComposite
         in="SourceGraphic"
         in2="offset"
         operator="over"
         result="composite2"
         id="feComposite5620" />
    </filter>
    <filter
       style="color-interpolation-filters:sRGB"
       inkscape:label="Drop Shadow"
       id="filter4906">
      <feFlood
         flood-opacity="0.498039"
         flood-color="rgb(0,0,0)"
         result="flood"
         id="feFlood4896" />
      <feComposite
         in="flood"
         in2="SourceGraphic"
         operator="in"
         result="composite1"
         id="feComposite4898" />
      <feGaussianBlur
         in="composite1"
         stdDeviation="0.3"
         result="blur"
         id="feGaussianBlur4900" />
      <feOffset
         dx="1"
         dy="1"
         result="offset"
         id="feOffset4902" />
      <feComposite
         in="SourceGraphic"
         in2="offset"
         operator="over"
         result="composite2"
         id="feComposite4904" />
    </filter>
    <style
       id="style3854">.cls-1{fill:#fff;}</style>
    <filter
       style="color-interpolation-filters:sRGB;"
       inkscape:label="Drop Shadow"
       id="filter1516">
      <feFlood
         flood-opacity="0.501961"
         flood-color="rgb(60,64,67)"
         result="flood"
         id="feFlood1506" />
      <feComposite
         in="flood"
         in2="SourceGraphic"
         operator="in"
         result="composite1"
         id="feComposite1508" />
      <feGaussianBlur
         in="composite1"
         stdDeviation="0.7"
         result="blur"
         id="feGaussianBlur1510" />
      <feOffset
         dx="0"
         dy="1.1"
         result="offset"
         id="feOffset1512" />
      <feComposite
         in="SourceGraphic"
         in2="offset"
         operator="over"
         result="composite2"
         id="feComposite1514" />
    </filter>
    <mask
       maskUnits="userSpaceOnUse"
       id="mask921">
      <path
         style="display:inline;opacity:1;fill:#ffffff;fill-opacity:1;stroke-width:0.39691988"
         d="M 30.691667,19.050001 A 11.641666,11.641666 0 0 1 19.050001,30.691667 11.641666,11.641666 0 0 1 7.4083348,19.050001 11.641666,11.641666 0 0 1 19.050001,7.4083348 11.641666,11.641666 0 0 1 30.691667,19.050001 Z"
         id="path923"
         inkscape:connector-curvature="0"
         mask="none"
         clip-path="none" />
    </mask>
    <mask
       maskUnits="userSpaceOnUse"
       id="mask925">
      <path
         style="display:inline;opacity:1;fill:#ffffff;fill-opacity:1;stroke-width:0.39691988"
         d="M 30.691667,19.050001 A 11.641666,11.641666 0 0 1 19.050001,30.691667 11.641666,11.641666 0 0 1 7.4083348,19.050001 11.641666,11.641666 0 0 1 19.050001,7.4083348 11.641666,11.641666 0 0 1 30.691667,19.050001 Z"
         id="path927"
         inkscape:connector-curvature="0"
         mask="none"
         clip-path="none" />
    </mask>
  </defs>
  <sodipodi:namedview
     id="base"
     pagecolor="#ffffff"
     bordercolor="#666666"
     borderopacity="1.0"
     inkscape:pageopacity="0.0"
     inkscape:pageshadow="2"
     inkscape:zoom="6.06"
     inkscape:cx="16.726885"
     inkscape:cy="67.823404"
     inkscape:document-units="pt"
     inkscape:current-layer="layer1"
     showgrid="false"
     units="pt"
     inkscape:snap-object-midpoints="true"
     inkscape:window-width="2408"
     inkscape:window-height="1260"
     inkscape:window-x="81"
     inkscape:window-y="75"
     inkscape:window-maximized="0"
     inkscape:snap-global="false"
     showguides="true"
     inkscape:guide-bbox="true" />
  <metadata
     id="metadata5">
    <rdf:RDF>
      <cc:Work
         rdf:about="">
        <dc:format>image/svg+xml</dc:format>
        <dc:type
           rdf:resource="http://purl.org/dc/dcmitype/StillImage" />
        <dc:title />
      </cc:Work>
    </rdf:RDF>
  </metadata>
  <g
     inkscape:groupmode="layer"
     id="layer4"
     inkscape:label="Background"
     style="display:inline">
    <rect
       style="display:inline;opacity:1;fill:#dc3d33;fill-opacity:1;stroke:none;stroke-width:0.40924388;stroke-miterlimit:4;stroke-dasharray:none;stroke-opacity:0.07843137"
       id="rect879"
       width="38.100002"
       height="38.100002"
       x="-1.7888184e-06"
       y="-8.944092e-07"
       inkscape:label="Red Square" />
    <rect
       inkscape:label="Lower Half +2"
       y="19.050001"
       x="-1.7888184e-06"
       height="19.050001"
       width="38.100002"
       id="rect996"
       style="display:inline;opacity:1;fill:#ca2d23;fill-opacity:1;stroke:none;stroke-width:0.28937912;stroke-miterlimit:4;stroke-dasharray:none;stroke-opacity:0.07843137" />
  </g>
  <g
     inkscape:label="Drop Shaddow"
     id="g887"
     inkscape:groupmode="layer"
     style="display:none">
    <path
       inkscape:label="Radio Outline Shadow"
       inkscape:connector-curvature="0"
       id="path926-9-5"
       d="m 24.757739,11.424909 c -0.02706,0.0026 -0.05525,0.0079 -0.08437,0.01635 l -12.76658,3.70005 -0.100723,0.02892 -0.02393,0.0072 c -0.01952,0.0051 -0.03858,0.01174 -0.05664,0.02034 -0.557318,0.210986 -0.921917,0.719477 -0.921073,1.284078 v 7.585194 c -2.98e-4,0.762949 0.657845,1.381412 1.469767,1.381412 L 17.112718,30.516351 24.642931,38.1 38.1,38.099995 V 24.808049 l -7.481938,-6.94838 -5.728885,-5.761606 C 25.32598,11.971262 25.16366,11.38611 24.757739,11.424909 Z"
       style="display:inline;opacity:0.12999998;fill:#3c4043;fill-opacity:1;stroke-width:0.09921875"
       sodipodi:nodetypes="cccccccccccccccc" />
  </g>
  <g
     inkscape:groupmode="layer"
     id="g923"
     inkscape:label="Stencil"
     style="display:none">
    <path
       style="display:inline;opacity:1;fill:#ffffff;fill-opacity:1;stroke:#000000;stroke-width:0.03524514;stroke-miterlimit:4;stroke-dasharray:none;stroke-opacity:0.07843137"
       d="M 0.01757025,0.01757075 V 38.08243 H 38.08243 V 0.01757075 Z M 19.050001,7.4083338 A 11.641667,11.641667 0 0 1 30.691668,19.050001 11.641667,11.641667 0 0 1 19.050001,30.691668 11.641667,11.641667 0 0 1 7.4083342,19.050001 11.641667,11.641667 0 0 1 19.050001,7.4083338 Z"
       id="path921"
       inkscape:connector-curvature="0"
       inkscape:label="Cicular Stencil" />
  </g>
  <g
     inkscape:groupmode="layer"
     id="layer3"
     inkscape:label="Radio Icon by Munadi Kiehl (original)"
     style="display:none"
     transform="translate(0,-29.633334)">
    <path
       id="path3885"
       d="m 27.050929,46.172702 h -0.486714 v -0.05761 c 2.95e-4,-0.762084 -0.656603,-1.380254 -1.467606,-1.381084 H 14.536031 l 10.353204,-3.002617 c 0.465924,-0.135253 0.250021,-0.791981 -0.215902,-0.656728 l -12.766518,3.699921 -0.100755,0.02905 -0.02399,0.007 c -0.01952,0.0051 -0.03845,0.01194 -0.05651,0.02054 -0.557318,0.210984 -0.922029,0.7193 -0.921185,1.283902 v 7.585189 c -2.95e-4,0.762947 0.657816,1.381585 1.469738,1.381585 h 12.821959 c 0.811003,-8.11e-4 1.467901,-0.619 1.467606,-1.381084 v -5.366037 h 0.486714 c 0.135433,0 0.245223,-0.103168 0.245223,-0.230431 v -1.703186 c -0.0012,-0.126286 -0.110293,-0.228158 -0.24469,-0.228428 z"
       class="cls-1"
       inkscape:connector-curvature="0"
       style="display:inline;fill:#3c98db;fill-opacity:1;stroke-width:0.05167651"
       inkscape:label="Radio outline blue"
       sodipodi:nodetypes="cccccccccccccscccssccc" />
    <path
       inkscape:label="Dial white"
       style="display:inline;fill:#ffffff;stroke-width:0.05167651"
       inkscape:connector-curvature="0"
       class="cls-1"
       d="m 24.443036,51.925965 a 1.0027485,0.94226262 0 1 1 -1.002748,-0.942263 1.0043477,0.94376542 0 0 1 1.002748,0.942263 z"
       id="path3862-3" />
    <path
       inkscape:label="Radio white"
       style="display:inline;fill:#ffffff;stroke-width:0.05167651"
       inkscape:connector-curvature="0"
       class="cls-1"
       d="m 27.050929,46.172702 h -0.486714 v -0.05761 A 1.469205,1.3805826 0 0 0 25.096609,44.734011 H 14.536031 l 10.353204,-3.002617 a 0.36573716,0.34367588 0 1 0 -0.215902,-0.656728 l -12.766518,3.699921 -0.100755,0.02905 -0.02399,0.007 a 0.30386316,0.28553413 0 0 0 -0.05651,0.02054 1.4708043,1.3820853 0 0 0 -0.921185,1.283902 v 7.585189 a 1.4697381,1.3810835 0 0 0 1.469738,1.381585 h 12.821959 a 1.469205,1.3805826 0 0 0 1.467606,-1.381084 v -5.366037 h 0.486714 a 0.2452229,0.23043105 0 0 0 0.245223,-0.230431 v -1.703186 a 0.2452229,0.23043105 0 0 0 -0.24469,-0.228428 z M 12.199483,46.34803 a 0.45312929,0.42579649 0 0 1 0.452063,-0.424794 h 8.017723 v 2.16555 a 0.27454303,0.25798259 0 1 0 0.549086,0 v -2.165049 h 3.499224 a 0.4520631,0.42479464 0 0 1 0.452064,0.424794 v 2.204123 a 0.4520631,0.42479464 0 0 1 -0.452064,0.424795 H 12.653146 a 0.45312929,0.42579649 0 0 1 -0.452063,-0.424795 z m 7.597113,7.298653 h -7.246337 a 0.36623508,0.34414376 0 1 1 0,-0.687786 h 7.246337 a 0.36623508,0.34414376 0 0 1 0,0.687786 z m 0,-1.375573 h -7.246337 a 0.36623508,0.34414376 0 0 1 0,-0.687786 h 7.246337 a 0.36623508,0.34414376 0 0 1 0,0.687786 z m 0,-1.375573 h -7.246337 a 0.36623508,0.34414376 0 1 1 0,-0.687787 h 7.246337 a 0.36623508,0.34414376 0 0 1 0,0.687787 z m 3.643692,2.66198 a 1.7352186,1.6305501 0 1 1 1.734686,-1.631552 1.7362848,1.631552 0 0 1 -1.735219,1.631552 z"
       id="path3860" />
  </g>
  <g
     transform="translate(0,-29.633334)"
     inkscape:groupmode="layer"
     id="g959"
     inkscape:label="Radio Icon  (Variant)"
     style="display:inline">
    <path
       id="path1000"
       d="m 26.564215,46.115095 c 2.95e-4,-0.762084 -0.656603,-1.380254 -1.467606,-1.381084 H 14.536031 l -2.491082,2.65e-4 -0.138134,0.04031 -0.100755,0.02905 -0.02399,0.007 c -0.01952,0.0051 -0.03845,0.01194 -0.05651,0.02054 -0.557318,0.210984 -0.922029,0.7193 -0.921185,1.283902 v 7.585189 c -2.95e-4,0.762947 0.657816,1.381585 1.469738,1.381585 h 12.821959 c 0.811003,-8.11e-4 1.467901,-0.619 1.467606,-1.381084 -1.8e-4,-2.528563 -7.5e-5,-5.057126 5.41e-4,-7.585689 z"
       class="cls-1"
       inkscape:connector-curvature="0"
       style="display:inline;fill:#f1f3f4;fill-opacity:1;stroke-width:0.05167651;filter:url(#filter1516)"
       inkscape:label="Radio (basic shape) Shaddow -- edit in filter settings"
       sodipodi:nodetypes="ccccccccccscccc" />
    <path
       sodipodi:nodetypes="ccccccccccscccc"
       inkscape:label="Radio (basic shape)"
       style="display:inline;fill:#f1f3f4;fill-opacity:1;stroke-width:0.05167651"
       inkscape:connector-curvature="0"
       class="cls-1"
       d="m 26.564215,46.115095 c 2.95e-4,-0.762084 -0.656603,-1.380254 -1.467606,-1.381084 H 14.536031 l -2.491082,2.65e-4 -0.138134,0.04031 -0.100755,0.02905 -0.02399,0.007 c -0.01952,0.0051 -0.03845,0.01194 -0.05651,0.02054 -0.557318,0.210984 -0.922029,0.7193 -0.921185,1.283902 v 7.585189 c -2.95e-4,0.762947 0.657816,1.381585 1.469738,1.381585 h 12.821959 c 0.811003,-8.11e-4 1.467901,-0.619 1.467606,-1.381084 -1.8e-4,-2.528563 -7.5e-5,-5.057126 5.41e-4,-7.585689 z"
       id="path943" />
    <path
       id="path945"
       d="m 27.050929,46.172702 h -0.486714 l -5.41e-4,2.162045 h 0.486714 c 0.135433,0 0.245223,-0.103168 0.245223,-0.230431 V 46.40113 c -0.0012,-0.126286 -0.110293,-0.228158 -0.24469,-0.228428 z"
       class="cls-1"
       inkscape:connector-curvature="0"
       style="display:inline;fill:#f1f3f4;fill-opacity:1;stroke-width:0.05167651"
       inkscape:label="Volume dial"
       sodipodi:nodetypes="cccssccc" />
    <path
       sodipodi:nodetypes="ccccc"
       inkscape:label="Antenna"
       style="display:inline;fill:#f1f3f4;fill-opacity:1;stroke-width:0.05167651"
       inkscape:connector-curvature="0"
       class="cls-1"
       d="m 14.536031,44.734011 10.353204,-3.002617 c 0.465924,-0.135253 0.250021,-0.791981 -0.215902,-0.656728 l -12.627845,3.659308 z"
       id="path947" />
    <path
       sodipodi:nodetypes="cccccccccccccccccc"
       inkscape:connector-curvature="0"
       d="m 12.543721,50.20747 c -0.503926,-0.01077 -0.497057,0.707192 0.0066,0.687913 h 7.246324 c 0.468386,-0.01797 0.468386,-0.669738 0,-0.687714 h -7.246323 c -0.0022,-8.6e-5 -0.0044,-1.02e-4 -0.0066,-2.04e-4 z m 0.0066,1.375826 c -0.468366,0.01799 -0.468366,0.669721 0,0.687714 h 7.246324 c 0.468366,-0.01799 0.468366,-0.66972 0,-0.687714 z m -0.0066,1.375427 c -0.503926,-0.01077 -0.497057,0.707193 0.0066,0.687914 h 7.246324 c 0.472213,-0.01464 0.472213,-0.673277 0,-0.687914 h -7.246323 c -0.0022,-1.8e-5 -0.0044,-1.8e-5 -0.0066,0 z"
       style="display:inline;fill:#dc3d33;fill-opacity:1;stroke-width:0.05167652"
       id="path949"
       inkscape:label="Speaker (inner)" />
    <path
       inkscape:label="Frequency Dial outer"
       id="path951"
       style="display:inline;fill:#dc3d33;fill-opacity:1;stroke-width:0.05167652"
       d="m 23.367233,50.297822 c -2.263636,0.08951 -2.192441,3.25996 0.0732,3.259659 0.958271,-8.1e-4 1.734626,-0.731057 1.734641,-1.631524 -6.18e-4,-0.926915 -0.822289,-1.666929 -1.807841,-1.628135 z"
       inkscape:connector-curvature="0"
       sodipodi:nodetypes="cccc" />
    <path
       inkscape:label="Frequency Dial"
       style="display:inline;fill:#f1f3f4;fill-opacity:1;stroke-width:0.05167651"
       inkscape:connector-curvature="0"
       class="cls-1"
       d="m 24.443036,51.925965 a 1.0027485,0.94226262 0 1 1 -1.002748,-0.942263 1.0043477,0.94376542 0 0 1 1.002748,0.942263 z"
       id="path953" />
    <path
       inkscape:label="Frequency Scale"
       sodipodi:nodetypes="ccccccccc"
       inkscape:connector-curvature="0"
       id="path955"
       d="m 12.651625,45.923222 c -0.249396,5.02e-4 -0.45148,0.190283 -0.452159,0.424635 l 0.0016,2.204752 c 5.79e-4,0.23443 0.202681,0.424334 0.452159,0.424835 h 12.064507 c 0.249645,-5.3e-5 0.451984,-0.19025 0.45196,-0.424835 v -2.204154 c 6e-6,-0.234585 -0.202333,-0.424781 -0.451978,-0.424834 z"
       style="display:inline;fill:#dc3d33;fill-opacity:1;stroke-width:0.05167652" />
    <path
       style="display:inline;fill:#f1f3f4;fill-opacity:1;stroke-width:0.05167652"
       d="m 21.218512,45.923621 v 2.16506 c 8.7e-5,0.344064 -0.549007,0.344064 -0.549093,0 v -2.165459 z"
       id="path957"
       inkscape:connector-curvature="0"
       sodipodi:nodetypes="ccccc"
       inkscape:label="Frequency Needle" />
  </g>
  <g
     inkscape:groupmode="layer"
     id="layer1"
     inkscape:label="Save Zones"
     style="display:none">
    <circle
       style="display:inline;opacity:0.12999998;fill:#ff71ff;fill-opacity:1;stroke-width:0.39691988"
       id="path846"
       cx="19.050001"
       cy="19.050001"
       r="11.641666"
       inkscape:label="Circle 66pt" />
    <rect
       style="display:none;opacity:0.35;fill:#ff71ff;fill-opacity:1;stroke-width:0.26022217"
       id="rect848"
       width="25.4"
       height="25.4"
       x="6.3500004"
       y="6.3500004"
       inkscape:label="Rectangle 72pt"
       inkscape:export-filename="/home/solaris/Desktop/transistor-app-icon.png"
       inkscape:export-xdpi="512"
       inkscape:export-ydpi="512" />
  </g>
</svg>
